{"title":"Dubosc - Je vous ai pas racconte 2003","uid":5388594,"size":1042849254,"categoryP":"video","categoryS":"other","magnet":"?xt=urn:btih:7a098488c17c2f98f6a900d95b3a09d4391f3fcf&amp;dn=Dubosc+-+Je+vous+ai+pas+racconte+2003&amp;tr=udp%3A%2F%2Ftracker.openbittorrent.com%3A80&amp;tr=udp%3A%2F%2Fopen.demonii.com%3A1337&amp;tr=udp%3A%2F%2Ftracker.coppersurfer.tk%3A6969&amp;tr=udp%3A%2F%2Fexodus.desync.com%3A6969","seeders":0,"leechers":0,"uploader":null,"files":-1,"time":1266965508,"description":"Ce torrent vous est offer par MWD.\n &lt;a href=&quot;\nhttp://www.amazon.fr/Franck-Dubosc-Z%C3%A9nith-jvous-racont%C3%A9/dp/B0000AKPDX&quot; rel=&quot;nofollow&quot; target=&quot;_NEW&quot;&gt;\nhttp://www.amazon.fr/Franck-Dubosc-Z%C3%A9nith-jvous-racont%C3%A9/dp/B0000AKPDX&lt;/a&gt;\n\n#  Acteurs : Franck Dubosc\n# Langue : FranÃƒÂ§ais\n# Studio : Universal Pictures\n# Date de sortie du DVD : 21 octobre 2003\n# DurÃƒÂ©e : 110 minutes\n\nAmazon.fr\nToujours charmeur, toujours macho mais jamais vulgaire (mais, prÃƒÂ©cise-t-il, &quot;je peux faire un spectacle vulgaire :\n je suis bilingue&quot;), Franck Dubosc s'est produit trois soirs durant au ZÃƒÂ©nith de Paris en octobre 2002. FidÃƒÂ¨le ÃƒÂ \n son mot d'ordre (&quot;Pour toi public&quot;), Dubosc joue avec les spectateurs, qui en redemandent. Il les apostrophe, \ndiscute avec eux, passe dans les rangs, grimpe en haut des gradins de cette (trop ?) grande salle, glissant un \nmot au passage (&quot;Tiens, t'as changÃƒÂ© de mari, toi ?&quot;). Pas de doute, il a peaufinÃƒÂ© son personnage, celui du bellÃƒÂ¢tre\n nostalgique d'un temps que les moins de 20 ans ne peuvent pas connaÃƒÂ®tre, et nous offre quelques moments \nrÃƒÂ©ellement hilarants, notamment grÃƒÂ¢ce ÃƒÂ  des invitÃƒÂ©s dont on taira les noms pour prÃƒÂ©server l'effet de surprise. \nTrÃƒÂ¨s fidÃƒÂ¨le ÃƒÂ  l'esprit du spectacle, le DVD propose de sympathiques bonus, prÃƒÂ©sentÃƒÂ©s par le maÃƒÂ®tre de cÃƒÂ©rÃƒÂ©monie \nen personne. Franck Dubosc y pratique l'autodÃƒÂ©rision avec ÃƒÂ©lÃƒÂ©gance dans un bÃƒÂªtisier joliment intitulÃƒÂ© \n&quot;Foutez-vous de ma gueule&quot; et un making of de 10 minutes nous fait dÃƒÂ©couvrir les coulisses du spectacle. Mais \nle supplÃƒÂ©ment le plus intÃƒÂ©ressant est une plongÃƒÂ©e ÃƒÂ  l'ÃƒÂ©coute des micros ouverts des techniciens durant le \nspectacle, grÃƒÂ¢ce ÃƒÂ  quoi on s'aperÃƒÂ§oit d'une part que ceux-ci n'hÃƒÂ©sitent pas ÃƒÂ  brocarder (gentiment) &quot;l'idole&quot; \net d'autre part qu'ils ne chantent guÃƒÂ¨re mieux que Dubosc ! --MichaÃƒÂ«l Cuq\n\nSynopsis\nRÃƒÂ©gnant en maÃƒÂ®tre sur la lugubre demeure Usher avec sa soeur Madeline, Roderick Usher est un personnage \nÃƒÂ©trange et inquiÃƒÂ©tant.Ses sens sont si sensibles que le moindre bruit, la moindre odeur ou le moindre contact\n furtif, lui provoquent des douleurs atroces.Lorsque Philip Wintrop vient rejoindre Madeline afin de l'ÃƒÂ©pouser,\nRoderick voit d'un mauvais oeil cette union.Pour Philip, il devient ÃƒÂ©vident que, la maison n'est pas une simple \ndemeure...c'est aussi une tombe! \n\nTorrentDubosc - Je vous ai pas raccontÃƒÂ©Dubosc - Je vous ai pas raconte.avi\nFormat                           : AVI\nFormat/Info                      : Audio Video Interleave\nFile size                        : 995 MiB\nDuration                         : 1h 50mn\nOverall bit rate                 : 1 258 Kbps\nWriting application              : Lavf52.14.0\n\nVideo\nFormat                           : xvid\nCodec ID                         : xvid\nDuration                         : 1h 50mn\nBit rate                         : 1 054 Kbps\nWidth                            : 600 pixels\nHeight                           : 450 pixels\nDisplay aspect ratio             : 4:3\nFrame rate                       : 25.000 fps\nBits/(Pixel*Frame)               : 0.156\nStream size                      : 833 MiB (84%)\n\nAudio\nID                               : 1\nFormat                           : MPEG Audio\nFormat version                   : Version 1\nFormat profile                   : Layer 3\nFormat_Settings_Mode             : Joint stereo\nFormat_Settings_ModeExtension    : MS Stereo\nCodec ID                         : 55\nCodec ID/Hint                    : MP3\nDuration                         : 1h 50mn\nBit rate mode                    : Constant\nBit rate                         : 192 Kbps\nChannel(s)                       : 2 channels\nSampling rate                    : 44.1 KHz\nStream size                      : 152 MiB (15%)\nAlignment                        : Aligned on interleaves\nInterleave, duration             : 26 ms (0.65 video frame)\nWriting library                  : LAME3.97","torrent":{"xt":"urn:btih:7a098488c17c2f98f6a900d95b3a09d4391f3fcf","amp;dn":"Dubosc+-+Je+vous+ai+pas+racconte+2003","amp;tr":["udp%3A%2F%2Ftracker.openbittorrent.com%3A80","udp%3A%2F%2Fopen.demonii.com%3A1337","udp%3A%2F%2Ftracker.coppersurfer.tk%3A6969","udp%3A%2F%2Fexodus.desync.com%3A6969"],"infoHash":"7a098488c17c2f98f6a900d95b3a09d4391f3fcf","infoHashBuffer":{"type":"Buffer","data":[122,9,132,136,193,124,47,152,246,169,0,217,91,58,9,212,57,31,63,207]},"announce":[],"urlList":[]}}